<svg width="1589" height="1339" viewBox="0 0 1589 1339" fill="none" xmlns="http://www.w3.org/2000/svg">
<g filter="url(#filter0_d_21_52)">
<path d="M67.6699 779.66C-115.074 417.808 118.95 0 472.318 0C723.125 -0.000302397 825.686 168.802 1000.97 199.578C1207.76 235.885 1549.39 131.763 1582.23 475.621C1617.54 845.274 1208.89 982.036 975.797 1065.04C778.414 1135.32 326.134 1291.44 67.6699 779.66Z" fill="url(#paint0_linear_21_52)"/>
<g filter="url(#filter1_f_21_52)">
<ellipse cx="482.337" cy="1307.95" rx="153.49" ry="17.0545" fill="url(#paint1_radial_21_52)" fill-opacity="0.6"/>
</g>
<g filter="url(#filter2_f_21_52)">
<ellipse cx="889.208" cy="1299.82" rx="308.605" ry="13.806" fill="url(#paint2_radial_21_52)" fill-opacity="0.7"/>
</g>
<rect x="636" y="283" width="523" height="997" rx="69" fill="#6366F1"/>
<path d="M976.663 653.891H967.577V617.549C967.577 577.463 934.978 544.864 894.893 544.864C854.807 544.864 822.208 577.463 822.208 617.549V653.891H813.123C798.101 653.891 785.866 666.114 785.866 681.148V808.346C785.866 823.379 798.101 835.602 813.123 835.602H976.663C991.684 835.602 1003.92 823.379 1003.92 808.346V681.148C1003.92 666.114 991.684 653.891 976.663 653.891ZM846.437 617.549C846.437 590.825 868.169 569.092 894.893 569.092C921.617 569.092 943.349 590.825 943.349 617.549V653.891H846.437V617.549ZM907.007 747.436V775.032C907.007 781.719 901.592 787.146 894.893 787.146C888.194 787.146 882.779 781.719 882.779 775.032V747.436C875.571 743.232 870.665 735.504 870.665 726.576C870.665 713.214 881.531 702.347 894.893 702.347C908.255 702.347 919.121 713.214 919.121 726.576C919.121 735.504 914.215 743.232 907.007 747.436Z" fill="#6366F1" fill-opacity="0.74"/>
<path d="M798.87 886.688L795.331 885.634L795.87 883.864L799.409 885.177L799.303 881.146H801.096L800.979 885.235L804.459 883.946L804.999 885.728L801.401 886.794L803.721 889.97L802.268 891.071L800.088 887.696L797.979 890.989L796.514 889.923L798.87 886.688ZM809.206 886.688L805.667 885.634L806.206 883.864L809.745 885.177L809.639 881.146H811.432L811.315 885.235L814.795 883.946L815.334 885.728L811.737 886.794L814.057 889.97L812.604 891.071L810.424 887.696L808.315 890.989L806.85 889.923L809.206 886.688ZM819.542 886.688L816.002 885.634L816.542 883.864L820.081 885.177L819.975 881.146H821.768L821.651 885.235L825.131 883.946L825.67 885.728L822.073 886.794L824.393 889.97L822.94 891.071L820.76 887.696L818.651 890.989L817.186 889.923L819.542 886.688ZM829.877 886.688L826.338 885.634L826.877 883.864L830.417 885.177L830.311 881.146H832.104L831.987 885.235L835.467 883.946L836.006 885.728L832.409 886.794L834.729 889.97L833.276 891.071L831.096 887.696L828.987 890.989L827.522 889.923L829.877 886.688ZM840.213 886.688L836.674 885.634L837.213 883.864L840.752 885.177L840.647 881.146H842.44L842.323 885.235L845.803 883.946L846.342 885.728L842.745 886.794L845.065 889.97L843.612 891.071L841.432 887.696L839.323 890.989L837.858 889.923L840.213 886.688ZM850.549 886.688L847.01 885.634L847.549 883.864L851.088 885.177L850.983 881.146H852.776L852.659 885.235L856.139 883.946L856.678 885.728L853.081 886.794L855.401 889.97L853.948 891.071L851.768 887.696L849.659 890.989L848.194 889.923L850.549 886.688ZM860.885 886.688L857.346 885.634L857.885 883.864L861.424 885.177L861.319 881.146H863.112L862.995 885.235L866.475 883.946L867.014 885.728L863.417 886.794L865.737 889.97L864.284 891.071L862.104 887.696L859.995 890.989L858.53 889.923L860.885 886.688ZM871.221 886.688L867.682 885.634L868.221 883.864L871.76 885.177L871.655 881.146H873.448L873.331 885.235L876.811 883.946L877.35 885.728L873.752 886.794L876.073 889.97L874.62 891.071L872.44 887.696L870.331 890.989L868.866 889.923L871.221 886.688ZM881.557 886.688L878.018 885.634L878.557 883.864L882.096 885.177L881.991 881.146H883.784L883.667 885.235L887.147 883.946L887.686 885.728L884.088 886.794L886.409 889.97L884.956 891.071L882.776 887.696L880.667 890.989L879.202 889.923L881.557 886.688ZM891.893 886.688L888.354 885.634L888.893 883.864L892.432 885.177L892.327 881.146H894.12L894.002 885.235L897.483 883.946L898.022 885.728L894.424 886.794L896.745 889.97L895.292 891.071L893.112 887.696L891.002 890.989L889.538 889.923L891.893 886.688ZM902.229 886.688L898.69 885.634L899.229 883.864L902.768 885.177L902.663 881.146H904.456L904.338 885.235L907.819 883.946L908.358 885.728L904.76 886.794L907.081 889.97L905.627 891.071L903.448 887.696L901.338 890.989L899.874 889.923L902.229 886.688ZM912.565 886.688L909.026 885.634L909.565 883.864L913.104 885.177L912.999 881.146H914.792L914.674 885.235L918.155 883.946L918.694 885.728L915.096 886.794L917.417 889.97L915.963 891.071L913.784 887.696L911.674 890.989L910.209 889.923L912.565 886.688Z" fill="#6366F1" fill-opacity="0.6"/>
<rect x="675" y="328" width="445" height="907" rx="57" fill="#EEF3FF"/>
<path d="M976.663 646.174H967.578V607.349C967.578 564.525 934.978 529.699 894.893 529.699C854.807 529.699 822.208 564.525 822.208 607.349V646.174H813.123C798.101 646.174 785.866 659.232 785.866 675.293V811.18C785.866 827.241 798.101 840.299 813.123 840.299H976.663C991.685 840.299 1003.92 827.241 1003.92 811.18V675.293C1003.92 659.232 991.685 646.174 976.663 646.174ZM846.437 607.349C846.437 578.799 868.169 555.582 894.893 555.582C921.617 555.582 943.349 578.799 943.349 607.349V646.174H846.437V607.349ZM907.007 746.109V775.59C907.007 782.734 901.592 788.532 894.893 788.532C888.194 788.532 882.779 782.734 882.779 775.59V746.109C875.571 741.619 870.665 733.362 870.665 723.824C870.665 709.549 881.531 697.94 894.893 697.94C908.255 697.94 919.121 709.549 919.121 723.824C919.121 733.362 914.215 741.619 907.007 746.109Z" fill="#6366F1" fill-opacity="0.74"/>
<path d="M772.734 902.961L765.656 900.852L766.734 897.312L773.812 899.938L773.602 891.875H777.188L776.953 900.055L783.914 897.477L784.992 901.039L777.797 903.172L782.438 909.523L779.531 911.727L775.172 904.977L770.953 911.562L768.023 909.43L772.734 902.961ZM793.406 902.961L786.328 900.852L787.406 897.312L794.484 899.938L794.273 891.875H797.859L797.625 900.055L804.586 897.477L805.664 901.039L798.469 903.172L803.109 909.523L800.203 911.727L795.844 904.977L791.625 911.562L788.695 909.43L793.406 902.961ZM814.078 902.961L807 900.852L808.078 897.312L815.156 899.938L814.945 891.875H818.531L818.297 900.055L825.258 897.477L826.336 901.039L819.141 903.172L823.781 909.523L820.875 911.727L816.516 904.977L812.297 911.562L809.367 909.43L814.078 902.961ZM834.75 902.961L827.672 900.852L828.75 897.312L835.828 899.938L835.617 891.875H839.203L838.969 900.055L845.93 897.477L847.008 901.039L839.812 903.172L844.453 909.523L841.547 911.727L837.188 904.977L832.969 911.562L830.039 909.43L834.75 902.961ZM855.422 902.961L848.344 900.852L849.422 897.312L856.5 899.938L856.289 891.875H859.875L859.641 900.055L866.602 897.477L867.68 901.039L860.484 903.172L865.125 909.523L862.219 911.727L857.859 904.977L853.641 911.562L850.711 909.43L855.422 902.961ZM876.094 902.961L869.016 900.852L870.094 897.312L877.172 899.938L876.961 891.875H880.547L880.312 900.055L887.273 897.477L888.352 901.039L881.156 903.172L885.797 909.523L882.891 911.727L878.531 904.977L874.312 911.562L871.383 909.43L876.094 902.961ZM896.766 902.961L889.688 900.852L890.766 897.312L897.844 899.938L897.633 891.875H901.219L900.984 900.055L907.945 897.477L909.023 901.039L901.828 903.172L906.469 909.523L903.562 911.727L899.203 904.977L894.984 911.562L892.055 909.43L896.766 902.961ZM917.438 902.961L910.359 900.852L911.438 897.312L918.516 899.938L918.305 891.875H921.891L921.656 900.055L928.617 897.477L929.695 901.039L922.5 903.172L927.141 909.523L924.234 911.727L919.875 904.977L915.656 911.562L912.727 909.43L917.438 902.961ZM938.109 902.961L931.031 900.852L932.109 897.312L939.188 899.938L938.977 891.875H942.562L942.328 900.055L949.289 897.477L950.367 901.039L943.172 903.172L947.812 909.523L944.906 911.727L940.547 904.977L936.328 911.562L933.398 909.43L938.109 902.961ZM958.781 902.961L951.703 900.852L952.781 897.312L959.859 899.938L959.648 891.875H963.234L963 900.055L969.961 897.477L971.039 901.039L963.844 903.172L968.484 909.523L965.578 911.727L961.219 904.977L957 911.562L954.07 909.43L958.781 902.961ZM979.453 902.961L972.375 900.852L973.453 897.312L980.531 899.938L980.32 891.875H983.906L983.672 900.055L990.633 897.477L991.711 901.039L984.516 903.172L989.156 909.523L986.25 911.727L981.891 904.977L977.672 911.562L974.742 909.43L979.453 902.961ZM1000.12 902.961L993.047 900.852L994.125 897.312L1001.2 899.938L1000.99 891.875H1004.58L1004.34 900.055L1011.3 897.477L1012.38 901.039L1005.19 903.172L1009.83 909.523L1006.92 911.727L1002.56 904.977L998.344 911.562L995.414 909.43L1000.12 902.961Z" fill="#6366F1" fill-opacity="0.6"/>
<path d="M620.542 690.736C611.446 697.883 582.372 719.973 551.512 724.033C520.653 728.094 540.955 773.572 567.754 764.639C594.554 755.706 627.039 711.039 627.039 711.039C635.16 704.542 625.415 696.422 620.542 690.736Z" fill="#F5F5F5"/>
<path d="M696.7 711.04L707.438 715.912L705.362 720.785L695.256 717.13L696.7 711.04Z" fill="#EFA765"/>
<path d="M685.552 742.905L719.619 685.052L716.371 681.803L697.692 689.113L666.02 745.149L667.644 747.585L685.552 742.905Z" fill="#879095"/>
<path d="M717.184 681.802L697.692 689.112L665.207 745.148L682.86 741.066L717.184 681.802Z" fill="#176FC9"/>
<path d="M463.802 646.882V621.707L498.723 620.895V649.319L463.802 646.882Z" fill="#FFC693"/>
<path d="M489.207 633.323C461.27 635.921 441.292 605.169 434.795 589.468L421.801 528.559C464.031 507.715 547.354 479.995 542.807 535.868C537.122 605.711 524.128 630.074 489.207 633.323Z" fill="url(#paint3_linear_21_52)"/>
<path d="M547.679 530.997C534.036 542.691 460.241 539.118 425.05 535.869C425.05 546.968 431.967 576.228 454.057 618.458C420.76 611.149 398.021 575.416 398.021 554.301C396.126 526.689 398.899 470.9 450.225 454.658C501.551 438.415 524.128 464.674 529.001 479.833C535.227 479.833 549.791 481.782 558.237 489.579C568.794 499.324 564.734 516.379 547.679 530.997Z" fill="url(#paint4_linear_21_52)"/>
<path d="M415.304 572.415C415.954 563.969 425.59 563.21 433.17 566.729C435.877 572.143 441.616 585.245 442.915 594.341C428.297 601.65 414.492 582.972 415.304 572.415Z" fill="#FFC693"/>
<path d="M572.626 1068.37C582.372 1013.96 555.572 984.723 550.699 914.881L399.645 924.626L490.602 1013.96C515.778 1036.7 507.657 1037.51 510.905 1073.24C510.905 1110.6 466.239 1200.48 427.257 1234.04L441.875 1255.16C467.322 1231.88 559.632 1118.72 572.626 1068.37Z" fill="#6366F1"/>
<path d="M467.863 1289.27C478.258 1248.99 433.483 1038.59 404.518 936.808C446.477 945.471 536.081 959.06 558.82 944.117C528.934 999.341 503.055 1199.93 504.408 1290.08C497.099 1287.64 488.166 1284.39 467.863 1289.27Z" fill="#6366F1"/>
<path d="M482.481 1284.39C482.481 1260.03 453.245 1047.26 419.136 944.117H419.948C419.677 944.117 416.375 943.143 405.33 939.244C419.948 983.911 475.172 1217.8 468.675 1284.39C475.172 1287.64 477.608 1284.39 482.481 1284.39Z" fill="#6366F1"/>
<path d="M388.276 793.064C388.275 726.471 417.782 659.064 443.499 641.197C443.499 641.197 516.591 627.393 533.645 650.132C550.7 672.871 545.015 655.817 584.809 748.396C637.951 872.031 598.615 935.995 556.385 959.547C514.154 983.098 411.016 945.741 399.646 935.995C388.277 926.25 388.276 873.844 388.276 793.073V793.064Z" fill="url(#paint5_linear_21_52)"/>
<path d="M472.736 818.239C450.507 798.55 398.021 728.094 440.252 690.736L538.52 824.736L609.986 827.172L607.549 846.663C538.52 875.087 501.16 843.414 472.736 818.239Z" fill="#F5F5F5"/>
<path d="M581.564 858.031C505.55 876.223 424.821 764.638 431.317 718.347C440.208 655.003 511.717 688.3 511.717 688.3C518.214 711.851 547.78 765.288 581.564 790.626C615.348 815.964 660.335 781.423 687.135 741.088L696.88 753.27C680.638 795.5 657.578 839.84 581.564 858.031Z" fill="url(#paint6_linear_21_52)"/>
<path d="M503.596 1286.02C501.647 1281.47 478.962 1284.12 467.863 1286.02V1312.82H542.578C544.473 1310.92 547.126 1305.83 542.578 1300.64C536.893 1294.14 505.22 1291.7 503.596 1286.02Z" fill="#6366F1"/>
<path d="M446.753 1258.2C446.753 1252.54 435.608 1237.57 430.035 1230.79L404.518 1247.59C418.01 1267.63 437.426 1295.16 442.354 1301.53C448.513 1309.48 457.312 1295.34 456.432 1288.26C455.552 1281.19 446.753 1265.28 446.753 1258.2Z" fill="#6366F1"/>
<path d="M366.348 693.985C344.302 674.144 410.474 644.987 444.312 643.634L411.015 696.421C400.187 702.648 390.712 715.912 366.348 693.985Z" fill="url(#paint7_linear_21_52)"/>
<path d="M369.596 687.488C365.048 680.991 382.864 665.29 387.466 660.688C377.718 663.124 356.603 680.179 362.288 689.112C381.779 715.912 398.833 706.167 407.769 698.045C390.711 707.227 374.144 693.985 369.596 687.488Z" fill="#F5F5F5"/>
<path d="M675.1 719.732C678.852 717.199 681.353 727.329 688.857 724.796C695.11 720.998 707.21 715.522 707.616 715.934C709.888 718.239 711.13 718.564 708.518 721.459C710.235 720.274 713.122 720.624 713.122 724.796C713.122 731.126 711.563 733.229 709.062 737.027C704.156 744.477 701.947 751.813 694.444 758.142L681.45 749.209C681.45 743.524 671.77 721.979 675.1 719.732Z" fill="#FFB46F"/>
<path d="M642.468 704.545C650.265 700.647 641.927 696.965 636.783 695.612V670.433C630.287 670.433 621.895 685.595 617.293 693.175L627.038 711.042C628.933 710.5 634.672 708.443 642.468 704.545Z" fill="#FFB46F"/>
<path d="M512.576 191.994C509.921 174.998 495.186 161.953 477.455 161.953C470.785 161.953 464.375 163.798 458.816 167.24C450.358 153.026 435.132 144.181 418.217 144.181C392.086 144.181 370.826 165.441 370.826 191.572C370.826 191.734 370.826 191.902 370.832 192.063C354.038 194.892 340.812 209.534 340.812 227.115C340.812 246.714 357.151 262.658 376.75 262.658H507.074C526.674 262.658 543.012 246.714 543.012 227.115C543.012 209.384 529.572 194.649 512.576 191.994V191.994Z" fill="white" fill-opacity="0.5"/>
<path d="M316.174 533.498C312.402 509.358 291.475 490.83 266.292 490.83C256.818 490.83 247.715 493.451 239.819 498.34C227.806 478.152 206.18 465.589 182.156 465.589C145.042 465.589 114.847 495.785 114.847 532.898C114.847 533.128 114.847 533.367 114.855 533.597C91.0027 537.614 72.2179 558.41 72.2179 583.38C72.2179 611.217 95.4232 633.861 123.26 633.861H308.36C336.197 633.861 359.402 611.217 359.402 583.38C359.402 558.197 340.314 537.269 316.174 533.498V533.498Z" fill="white" fill-opacity="0.5"/>
<path d="M1452.83 507.292C1449.01 482.813 1427.79 464.024 1402.25 464.024C1392.64 464.024 1383.41 466.682 1375.4 471.64C1363.22 451.167 1341.29 438.428 1316.93 438.428C1279.29 438.428 1248.67 469.048 1248.67 506.684C1248.67 506.918 1248.67 507.159 1248.68 507.393C1224.49 511.467 1205.44 532.555 1205.44 557.877C1205.44 586.106 1228.98 609.069 1257.21 609.069H1444.91C1473.14 609.069 1496.67 586.106 1496.67 557.877C1496.67 532.339 1477.31 511.117 1452.83 507.292V507.292Z" fill="white" fill-opacity="0.5"/>
</g>
<defs>
<filter id="filter0_d_21_52" x="0" y="0" width="1588.38" height="1333" filterUnits="userSpaceOnUse" color-interpolation-filters="sRGB">
<feFlood flood-opacity="0" result="BackgroundImageFix"/>
<feColorMatrix in="SourceAlpha" type="matrix" values="0 0 0 0 0 0 0 0 0 0 0 0 0 0 0 0 0 0 127 0" result="hardAlpha"/>
<feOffset dy="4"/>
<feGaussianBlur stdDeviation="2"/>
<feComposite in2="hardAlpha" operator="out"/>
<feColorMatrix type="matrix" values="0 0 0 0 0 0 0 0 0 0 0 0 0 0 0 0 0 0 0.25 0"/>
<feBlend mode="normal" in2="BackgroundImageFix" result="effect1_dropShadow_21_52"/>
<feBlend mode="normal" in="SourceGraphic" in2="effect1_dropShadow_21_52" result="shape"/>
</filter>
<filter id="filter1_f_21_52" x="314.847" y="1276.89" width="334.98" height="62.1089" filterUnits="userSpaceOnUse" color-interpolation-filters="sRGB">
<feFlood flood-opacity="0" result="BackgroundImageFix"/>
<feBlend mode="normal" in="SourceGraphic" in2="BackgroundImageFix" result="shape"/>
<feGaussianBlur stdDeviation="7" result="effect1_foregroundBlur_21_52"/>
</filter>
<filter id="filter2_f_21_52" x="558.603" y="1264.02" width="661.209" height="71.6121" filterUnits="userSpaceOnUse" color-interpolation-filters="sRGB">
<feFlood flood-opacity="0" result="BackgroundImageFix"/>
<feBlend mode="normal" in="SourceGraphic" in2="BackgroundImageFix" result="shape"/>
<feGaussianBlur stdDeviation="11" result="effect1_foregroundBlur_21_52"/>
</filter>
<linearGradient id="paint0_linear_21_52" x1="640.99" y1="1258.54" x2="1044.85" y2="-168.595" gradientUnits="userSpaceOnUse">
<stop stop-color="#6366F1"/>
<stop offset="1" stop-color="#F3F7FF"/>
</linearGradient>
<radialGradient id="paint1_radial_21_52" cx="0" cy="0" r="1" gradientUnits="userSpaceOnUse" gradientTransform="translate(482.337 1307.95) rotate(90) scale(17.0545 153.49)">
<stop stop-color="#C1C1C1"/>
<stop offset="1" stop-color="#D0D1D1"/>
</radialGradient>
<radialGradient id="paint2_radial_21_52" cx="0" cy="0" r="1" gradientUnits="userSpaceOnUse" gradientTransform="translate(889.208 1299.82) rotate(90) scale(13.806 308.605)">
<stop stop-color="#9C9C9C"/>
<stop offset="1" stop-color="#D0D1D1"/>
</radialGradient>
<linearGradient id="paint3_linear_21_52" x1="449.184" y1="584.348" x2="542.578" y2="583.536" gradientUnits="userSpaceOnUse">
<stop offset="0.292174" stop-color="#FFB46F"/>
<stop offset="1" stop-color="#FFD2AA"/>
</linearGradient>
<linearGradient id="paint4_linear_21_52" x1="425.633" y1="493.392" x2="570.19" y2="543.743" gradientUnits="userSpaceOnUse">
<stop stop-color="#3D71F3"/>
<stop offset="1" stop-color="#769CFC"/>
</linearGradient>
<linearGradient id="paint5_linear_21_52" x1="388.275" y1="719.973" x2="627.85" y2="840.166" gradientUnits="userSpaceOnUse">
<stop stop-color="white"/>
<stop offset="0.0001" stop-color="#FAFAFA"/>
</linearGradient>
<linearGradient id="paint6_linear_21_52" x1="446.748" y1="769.512" x2="700.941" y2="808.494" gradientUnits="userSpaceOnUse">
<stop stop-color="#FAFAFA"/>
<stop offset="1" stop-color="white"/>
</linearGradient>
<linearGradient id="paint7_linear_21_52" x1="351.73" y1="683.428" x2="437.815" y2="675.306" gradientUnits="userSpaceOnUse">
<stop stop-color="#F9F9F9"/>
<stop offset="1" stop-color="white"/>
</linearGradient>
</defs>
</svg>
