<svg width="1625" height="1341" viewBox="0 0 1625 1341" fill="none" xmlns="http://www.w3.org/2000/svg">
<path d="M102.77 885.773C-39.1165 527.238 129.085 193.193 463.91 223.74C701.556 245.421 945.671 76.4481 1124.96 92.8062C1323.9 110.956 1659.71 353.127 1564.13 728.722C1442.71 1205.87 1102.68 971.268 874.644 1029.74C681.545 1079.25 348.643 1507.07 102.77 885.773Z" fill="url(#paint0_linear_21_5)"/>
<path d="M685.733 824.064C683.206 807.899 669.187 795.492 652.317 795.492C645.97 795.492 639.872 797.247 634.582 800.521C626.535 787.002 612.048 778.589 595.953 778.589C571.091 778.589 550.863 798.81 550.863 823.663C550.863 823.817 550.863 823.977 550.869 824.131C534.89 826.821 522.306 840.747 522.306 857.468C522.306 876.109 537.851 891.273 556.499 891.273H680.498C699.146 891.273 714.692 876.109 714.692 857.468C714.692 840.604 701.904 826.59 685.733 824.064Z" fill="white" fill-opacity="0.5"/>
<path d="M565.882 392.09C562.293 369.131 542.382 351.509 518.421 351.509C509.407 351.509 500.745 354.002 493.233 358.651C481.803 339.45 461.227 327.502 438.368 327.502C403.056 327.502 374.326 356.221 374.326 391.52C374.326 391.739 374.326 391.965 374.334 392.184C351.64 396.005 333.767 415.784 333.767 439.533C333.767 466.009 355.846 487.547 382.332 487.547H558.447C584.933 487.547 607.012 466.009 607.012 439.533C607.012 415.581 588.85 395.677 565.882 392.09Z" fill="white" fill-opacity="0.5"/>
<path d="M1374.3 393C1370.66 369.717 1350.47 351.847 1326.17 351.847C1317.03 351.847 1308.25 354.375 1300.63 359.09C1289.04 339.619 1268.18 327.502 1244.99 327.502C1209.19 327.502 1180.05 356.625 1180.05 392.421C1180.05 392.643 1180.05 392.873 1180.06 393.095C1157.04 396.97 1138.92 417.027 1138.92 441.111C1138.92 467.96 1161.31 489.8 1188.17 489.8H1366.76C1393.62 489.8 1416.01 467.96 1416.01 441.111C1416.01 416.822 1397.6 396.637 1374.3 393Z" fill="white" fill-opacity="0.5"/>
<g filter="url(#filter0_f_21_5)">
<ellipse cx="534.669" cy="1307.69" rx="251.9" ry="19.3103" fill="url(#paint1_radial_21_5)" fill-opacity="0.6"/>
</g>
<path d="M329.131 793.464V771.572L364.675 770.866V795.583L329.131 793.464Z" fill="#FFC693"/>
<path d="M351.352 781.543C326.77 783.819 309.191 756.884 303.474 743.132L292.041 689.784C329.2 671.527 402.518 647.248 398.516 696.186C393.514 757.358 382.08 778.698 351.352 781.543Z" fill="url(#paint2_linear_21_5)"/>
<path d="M402.942 691.789C391.033 701.949 326.618 698.845 295.899 696.023C295.899 705.665 301.937 731.086 321.219 767.776C292.154 761.425 272.305 730.38 272.305 712.036C270.651 688.046 273.072 639.577 317.874 625.466C362.677 611.355 382.384 634.168 386.637 647.338C392.072 647.338 404.785 649.032 412.158 655.805C421.373 664.272 417.829 679.089 402.942 691.789Z" fill="url(#paint3_linear_21_5)"/>
<path d="M287.433 728.253C287.978 720.735 296.058 720.06 302.414 723.192C304.684 728.01 310.37 738.904 311.46 747C299.202 753.505 286.752 737.649 287.433 728.253Z" fill="#FFC693"/>
<path d="M248.498 844.874C239.557 831.243 279.541 798.016 310.586 795.582C287.613 810.187 287.059 837.113 283.541 848.878C277.332 849.69 257.439 858.505 248.498 844.874Z" fill="url(#paint4_linear_21_5)"/>
<path d="M454.036 1163.93C262.685 1131.03 269.491 1058.87 284.037 1006.94C323.142 1017.61 421.388 1035.55 461.461 1037.45C494.467 1081.14 496.818 1056.62 553.8 1113.16C593.382 1154.86 622.354 1230.43 613.709 1280.67L590.36 1282.52C594.987 1208.53 524.885 1176.12 454.036 1163.93Z" fill="#3D71F3"/>
<path d="M616.761 1279.55C615.318 1275.96 598.521 1278.05 590.303 1279.55V1300.74H645.624C647.027 1299.24 648.991 1295.22 645.624 1291.11C641.415 1285.97 617.963 1284.05 616.761 1279.55Z" fill="#6366F1"/>
<path d="M476.826 1162.18C282.433 1162.18 276.897 1090.09 282.433 1036.57C322.829 1040.46 422.814 1041.48 462.677 1036.57C502.663 1073.95 500.819 1049.44 566.642 1095.4C612.779 1129.71 658.301 1240.61 658.301 1291.47H634.309C626.312 1217.94 548.801 1162.18 476.826 1162.18Z" fill="#6366F1"/>
<path d="M659.202 1282.51C657.72 1279.15 640.469 1281.11 632.029 1282.51V1302.28H688.845C690.286 1300.89 692.303 1297.13 688.845 1293.29C684.522 1288.5 660.437 1286.7 659.202 1282.51Z" fill="#6366F1"/>
<path d="M349.123 901.735C294.146 908.355 310.409 838.297 323.008 824.506C330.568 816.231 349.123 810.715 408.91 816.231C483.2 823.086 486.336 744.518 479.693 724.521H492.75C497.561 745.437 504.295 786.443 492.75 816.231C478.319 853.467 430.214 878.98 349.123 901.735Z" fill="url(#paint5_linear_21_5)"/>
<path d="M493.754 1148.28C359.459 1144.62 319.828 1092.23 308.945 1085.3C296.008 1080.41 284.92 1076.74 281.223 1076.74C302.785 1150.73 398.269 1166.02 490.674 1162.35C565.83 1168.46 627.433 1235.12 633.593 1282.2L642.833 1280.98C643.86 1250.81 587.391 1153.79 493.754 1148.28Z" fill="#6366F1"/>
<path d="M340.518 786.946C307.301 792.171 304.225 794.915 288.847 817.592C272.238 873.366 268.575 1012.27 273.496 1082.15C294.411 1128.11 470.692 1067.76 482.899 1051.25C522.306 997.953 429.303 870.096 410.029 804.107C401.007 792.257 387.269 779.592 340.518 786.946Z" fill="url(#paint6_linear_21_5)"/>
<path d="M324.686 878.748C323.151 851.501 330.899 834.698 345.4 824.934C341.718 841.283 333.8 875.206 345.401 891.01C357.002 906.814 419.748 884.425 449.672 871.255C424.813 887.604 377.663 905.294 359.903 906.677C336.425 908.506 325.376 891.01 324.686 878.748Z" fill="#F5F5F5"/>
<path d="M364.673 901.735C309.559 908.355 325.863 838.297 338.494 824.506C346.072 816.231 364.673 810.715 424.609 816.231C499.084 823.086 506.591 744.518 500.391 724.521H514.17C518.992 745.437 520.232 786.443 508.658 816.231C494.191 853.467 445.966 878.98 364.673 901.735Z" fill="url(#paint7_linear_21_5)"/>
<path d="M252.748 839.674C252.748 833.515 262.337 820.171 267.437 812.576C263.765 816.271 246.628 827.357 247.241 840.29C246.628 849.528 262.678 858.92 281.996 848.107C255.724 851.178 252.748 842.991 252.748 839.674Z" fill="#F5F5F5"/>
<rect x="299.768" y="1146.26" width="244.173" height="156.027" rx="23" fill="#6366F1"/>
<rect x="454.308" y="702.893" width="84.997" height="26.2619" rx="7.5" fill="#6366F1"/>
<path d="M454.308 712.938C454.308 707.39 458.805 702.893 464.353 702.893C469.901 702.893 474.398 707.39 474.398 712.938V719.11C474.398 724.658 469.901 729.155 464.353 729.155C458.805 729.155 454.308 724.658 454.308 719.11V716.024V712.938Z" fill="#6366F1"/>
<path d="M469.762 716.983C469.762 710.908 474.687 705.983 480.762 705.983H543.759C549.834 705.983 554.759 710.908 554.759 716.983V721.245C554.759 727.32 549.834 732.245 543.759 732.245H480.762C474.687 732.245 469.762 727.32 469.762 721.245V719.114V716.983Z" fill="#3D71F3"/>
<path d="M488.307 732.245C489.594 733.411 492.943 735.043 496.034 732.245H488.307Z" fill="#FFB46F"/>
<path d="M469.762 714.983C469.762 710.012 473.791 705.983 478.762 705.983H482.397C487.368 705.983 491.397 710.012 491.397 714.983V723.245C491.397 728.215 487.368 732.245 482.397 732.245H478.762C473.791 732.245 469.762 728.215 469.762 723.245V719.114V714.983Z" fill="#6366F1"/>
<path d="M497.961 712.078C499.693 715.588 502.289 726.112 502.289 736.638C508.925 737.223 515.744 736.673 517.004 735.761C523.063 731.376 523.928 711.201 519.6 707.691C516.169 704.909 494.455 704.974 497.961 712.078Z" fill="#FFB46F"/>
<path d="M496.034 732.245L502.215 736.879V732.245H496.034Z" fill="#FFB46F"/>
<rect x="491.397" y="701.348" width="6.1816" height="3.08964" rx="1.54482" fill="#FFB46F"/>
<rect x="500.67" y="701.348" width="6.1816" height="3.08964" rx="1.54482" fill="#FFB46F"/>
<rect x="485.216" y="701.348" width="7.727" height="3.08964" rx="1.54482" fill="#FFB46F"/>
<rect x="496.034" y="701.348" width="6.1816" height="3.08964" rx="1.54482" fill="#FFB46F"/>
<g filter="url(#filter1_f_21_5)">
<ellipse cx="1080.19" cy="1296.88" rx="293.626" ry="13.131" fill="url(#paint8_radial_21_5)" fill-opacity="0.7"/>
</g>
<path d="M1356.82 696.442C1356.82 666.004 1331.93 641.101 1301.51 641.101H886.692C856.273 641.101 831.385 666.004 831.385 696.442V1212.96C831.385 1243.39 856.273 1268.3 886.692 1268.3H1200.07L1356.78 1120.72L1356.82 696.442Z" fill="#EEF3FF"/>
<path d="M830.786 695.941C830.786 665.504 855.674 640.6 886.093 640.6H1254.83V594.483C1254.83 564.046 1229.94 539.142 1199.52 539.142H784.696C754.277 539.142 729.389 564.046 729.389 594.483V1111C729.389 1141.44 754.277 1166.34 784.696 1166.34H830.786V695.941Z" fill="#6366F1"/>
<path d="M1254.83 1120H1356.82L1199.19 1268.3V1175.61C1199.19 1145.02 1224.23 1120 1254.83 1120Z" fill="#6366F1"/>
<path d="M969.283 885.012H1218.4C1226.05 885.012 1232.24 878.813 1232.24 871.177C1232.24 863.532 1226.05 857.342 1218.4 857.342H969.283C961.635 857.342 955.443 863.532 955.443 871.177C955.443 878.813 961.633 885.012 969.283 885.012Z" fill="#6366F1"/>
<path d="M969.283 792.78H1218.4C1226.05 792.78 1232.24 786.582 1232.24 778.945C1232.24 771.3 1226.05 765.111 1218.4 765.111H969.283C961.635 765.111 955.443 771.3 955.443 778.945C955.443 786.582 961.633 792.78 969.283 792.78Z" fill="#6366F1"/>
<path d="M969.283 977.245H1218.4C1226.05 977.245 1232.24 971.046 1232.24 963.41C1232.24 955.765 1226.05 949.575 1218.4 949.575H969.283C961.635 949.575 955.443 955.765 955.443 963.41C955.443 971.046 961.633 977.245 969.283 977.245Z" fill="#6366F1"/>
<path d="M969.283 1069.48H1107.68C1115.33 1069.48 1121.52 1063.28 1121.52 1055.64C1121.52 1048 1115.33 1041.81 1107.68 1041.81H969.283C961.635 1041.81 955.443 1048 955.443 1055.64C955.443 1063.28 961.633 1069.48 969.283 1069.48Z" fill="#6366F1"/>
<defs>
<filter id="filter0_f_21_5" x="268.769" y="1274.38" width="531.801" height="66.6206" filterUnits="userSpaceOnUse" color-interpolation-filters="sRGB">
<feFlood flood-opacity="0" result="BackgroundImageFix"/>
<feBlend mode="normal" in="SourceGraphic" in2="BackgroundImageFix" result="shape"/>
<feGaussianBlur stdDeviation="7" result="effect1_foregroundBlur_21_5"/>
</filter>
<filter id="filter1_f_21_5" x="764.569" y="1261.75" width="631.252" height="70.262" filterUnits="userSpaceOnUse" color-interpolation-filters="sRGB">
<feFlood flood-opacity="0" result="BackgroundImageFix"/>
<feBlend mode="normal" in="SourceGraphic" in2="BackgroundImageFix" result="shape"/>
<feGaussianBlur stdDeviation="11" result="effect1_foregroundBlur_21_5"/>
</filter>
<linearGradient id="paint0_linear_21_5" x1="604.623" y1="1388.92" x2="1110.36" y2="71.9805" gradientUnits="userSpaceOnUse">
<stop stop-color="#6366F1"/>
<stop offset="1" stop-color="#F3F7FF"/>
</linearGradient>
<radialGradient id="paint1_radial_21_5" cx="0" cy="0" r="1" gradientUnits="userSpaceOnUse" gradientTransform="translate(534.669 1307.69) rotate(90) scale(19.3103 251.9)">
<stop stop-color="#C1C1C1"/>
<stop offset="1" stop-color="#D0D1D1"/>
</radialGradient>
<linearGradient id="paint2_linear_21_5" x1="316.136" y1="738.648" x2="398.314" y2="737.93" gradientUnits="userSpaceOnUse">
<stop offset="0.292174" stop-color="#FFB46F"/>
<stop offset="1" stop-color="#FFD2AA"/>
</linearGradient>
<linearGradient id="paint3_linear_21_5" x1="296.408" y1="659.118" x2="422.462" y2="703.232" gradientUnits="userSpaceOnUse">
<stop stop-color="#3D71F3"/>
<stop offset="1" stop-color="#769CFC"/>
</linearGradient>
<linearGradient id="paint4_linear_21_5" x1="250.36" y1="849.742" x2="310.868" y2="825.174" gradientUnits="userSpaceOnUse">
<stop stop-color="#FAFAFA"/>
<stop offset="0.53087" stop-color="white"/>
</linearGradient>
<linearGradient id="paint5_linear_21_5" x1="306.515" y1="846.571" x2="542.469" y2="747.848" gradientUnits="userSpaceOnUse">
<stop stop-color="#EFEFEF"/>
<stop offset="1" stop-color="#E9E9E9"/>
</linearGradient>
<linearGradient id="paint6_linear_21_5" x1="279.619" y1="956.108" x2="475.801" y2="920.309" gradientUnits="userSpaceOnUse">
<stop stop-color="#F5F5F5"/>
<stop offset="1" stop-color="white"/>
</linearGradient>
<linearGradient id="paint7_linear_21_5" x1="321.959" y1="846.571" x2="558.325" y2="747.429" gradientUnits="userSpaceOnUse">
<stop stop-color="#FAFAFA"/>
<stop offset="1" stop-color="white"/>
</linearGradient>
<radialGradient id="paint8_radial_21_5" cx="0" cy="0" r="1" gradientUnits="userSpaceOnUse" gradientTransform="translate(1080.19 1296.88) rotate(90) scale(13.131 293.626)">
<stop stop-color="#9C9C9C"/>
<stop offset="1" stop-color="#D0D1D1"/>
</radialGradient>
</defs>
</svg>
